<?xml version="1.0" standalone="no"?>
<!DOCTYPE svg PUBLIC "-//W3C//DTD SVG 20010904//EN"
 "http://www.w3.org/TR/2001/REC-SVG-20010904/DTD/svg10.dtd">
<svg version="1.0" xmlns="http://www.w3.org/2000/svg"
 width="300.000000pt" height="300.000000pt" viewBox="0 0 300.000000 300.000000"
 preserveAspectRatio="xMidYMid meet">
<metadata>
Created by potrace 1.10, written by Peter Selinger 2001-2011
</metadata>
<g transform="translate(0.000000,300.000000) scale(0.100000,-0.100000)"
fill="#ea1010" stroke="none">
<path d="M1264 2821 c-457 -124 -657 -649 -397 -1043 93 -142 266 -259 433
-294 247 -52 526 51 677 250 98 130 143 263 143 421 0 197 -61 347 -195 480
-90 90 -159 134 -267 172 -101 36 -288 43 -394 14z m391 -58 c201 -72 356
-242 409 -448 20 -75 20 -230 1 -314 -9 -35 -33 -98 -55 -140 -191 -366 -671
-463 -987 -199 -101 84 -168 188 -210 324 -27 89 -24 276 6 364 75 216 239
372 453 430 109 30 274 23 383 -17z"/>
<path d="M2095 1464 c-253 -40 -466 -228 -541 -479 -27 -91 -25 -258 5 -355
53 -175 177 -323 331 -398 124 -61 192 -75 325 -69 182 8 311 64 435 187 123
124 180 257 188 435 5 133 -9 202 -70 325 -74 153 -224 278 -393 330 -69 20
-218 33 -280 24z m250 -60 c167 -41 311 -157 390 -314 45 -90 65 -174 65 -279
0 -208 -99 -392 -276 -510 -97 -65 -181 -92 -309 -98 -280 -15 -516 147 -613
419 -22 62 -26 90 -26 188 0 99 4 126 26 190 39 111 74 167 152 245 160 158
367 214 591 159z"/>
<path d="M2122 1243 c-44 -21 -79 -65 -93 -115 -14 -53 8 -115 57 -157 19 -17
34 -34 34 -39 0 -5 -11 -19 -25 -32 -37 -35 -45 -78 -45 -245 0 -176 8 -212
56 -254 63 -56 161 -35 198 43 15 31 17 63 14 225 l-3 189 -33 41 -32 40 31
23 c69 51 87 140 44 214 -42 72 -132 102 -203 67z m155 -67 c27 -29 33 -44 33
-78 0 -48 -25 -94 -62 -114 -62 -35 -150 0 -177 70 -13 33 -13 44 0 79 32 93
140 115 206 43z m-47 -281 c16 -8 34 -24 40 -34 6 -12 10 -98 10 -209 l0 -189
-26 -27 c-35 -35 -92 -36 -131 -2 l-28 24 0 195 c0 181 1 197 20 217 36 40 71
48 115 25z"/>
<path d="M1160 1345 c-515 -62 -897 -275 -982 -547 -27 -88 -26 -342 1 -397
26 -50 81 -97 128 -110 40 -12 1303 -16 1303 -5 0 3 -18 27 -40 52 -23 25 -59
82 -81 126 -132 269 -98 601 83 827 27 32 48 61 48 64 0 10 -359 2 -460 -10z
m364 -33 c3 -5 -4 -21 -15 -38 -37 -54 -86 -158 -109 -229 -34 -106 -39 -301
-11 -417 21 -90 65 -197 100 -247 46 -65 81 -61 -558 -61 -404 0 -588 3 -612
11 -41 14 -93 62 -109 99 -7 18 -10 83 -8 186 3 149 5 162 30 214 128 259 514
439 1033 483 85 7 254 7 259 -1z"/>
</g>
</svg>
